<?xml version="1.0" encoding="UTF-8" standalone="no"?>
<!-- Generator: Adobe Illustrator 20.1.0, SVG Export Plug-In . SVG Version: 6.00 Build 0)  -->

<svg
   version="1.1"
   id="Calque_1"
   x="0px"
   y="0px"
   viewBox="0 0 447.70002 185.1"
   xml:space="preserve"
   sodipodi:docname="IAPR2.svg"
   inkscape:version="1.4.3 (0d15f75, 2025-12-25)"
   width="447.70001"
   height="185.10001"
   xmlns:inkscape="http://www.inkscape.org/namespaces/inkscape"
   xmlns:sodipodi="http://sodipodi.sourceforge.net/DTD/sodipodi-0.dtd"
   xmlns="http://www.w3.org/2000/svg"
   xmlns:svg="http://www.w3.org/2000/svg"><defs
   id="defs38" /><sodipodi:namedview
   id="namedview38"
   pagecolor="#ffffff"
   bordercolor="#000000"
   borderopacity="0.25"
   inkscape:showpageshadow="2"
   inkscape:pageopacity="0.0"
   inkscape:pagecheckerboard="true"
   inkscape:deskcolor="#d1d1d1"
   inkscape:export-bgcolor="#81818100"
   inkscape:zoom="0.3493959"
   inkscape:cx="253.29433"
   inkscape:cy="326.27744"
   inkscape:window-width="1418"
   inkscape:window-height="821"
   inkscape:window-x="0"
   inkscape:window-y="33"
   inkscape:window-maximized="0"
   inkscape:current-layer="g37" />
<style
   type="text/css"
   id="style1">
	.st0{fill:#FEFEFE;}
	.st1{fill:#090A0A;}
	.st2{fill:#4B368B;}
	.st3{fill:#4A348B;}
	.st4{fill:#5D507D;}
	.st5{fill:#FCFBFC;}
</style>
<g
   id="g38"
   inkscape:export-filename="g38.svg"
   inkscape:export-xdpi="96"
   inkscape:export-ydpi="96"
   transform="translate(-50,-94.5)">
	<g
   id="g37"
   inkscape:export-filename="g37.svg"
   inkscape:export-xdpi="96"
   inkscape:export-ydpi="96">
		<path
   class="st0"
   d="m 50.5,121.8 c 0,-9.1 0,-18.1 0,-27.2 109.2,0 218.4,0 327.7,0 -0.7,0.7 -1.7,0.5 -2.5,0.6 -3.8,0.5 -7.5,1.3 -11.1,2.4 -5.4,1.6 -10.6,3.8 -15.5,6.7 -2.8,1.6 -5.5,3.4 -8.1,5.4 -4.1,3.2 -7.9,6.8 -11.3,10.8 -3.5,4.2 -6.5,8.7 -9.1,13.5 -2.8,5.4 -4.9,11.1 -6.3,17.1 -1,4.5 -1.8,9.2 -1.8,13.8 0,3.2 -0.1,6.5 0.3,9.7 0.3,3 0.8,5.9 1.4,8.8 0.7,3.3 1.7,6.6 2.8,9.7 1.7,4.5 3.8,8.9 6.4,13 3.9,6.2 8.5,11.7 14,16.5 4.3,3.7 8.8,6.9 13.8,9.5 6.1,3.2 12.6,5.6 19.4,7 4.2,0.9 8.4,1.4 12.7,1.5 2.4,0.1 4.7,0 7.1,-0.2 2.9,-0.2 5.7,-0.6 8.6,-1.1 5.5,-1 10.8,-2.6 15.9,-4.9 10,-4.5 18.7,-10.8 25.8,-19.1 4,-4.7 7.4,-9.7 10.2,-15.2 2.2,-4.3 3.8,-8.8 5.1,-13.5 1.2,-4.5 2.1,-9.1 2.3,-13.7 0.2,-4.3 0.3,-8.6 -0.2,-12.9 -0.3,-2.3 -0.6,-4.5 -1.1,-6.8 -1.1,-6 -3.1,-11.8 -5.7,-17.3 -2.8,-6 -6.4,-11.5 -10.8,-16.4 -3.6,-4 -7.5,-7.8 -11.9,-10.9 -5.5,-4 -11.4,-7.2 -17.8,-9.5 -6.1,-2.2 -12.3,-3.8 -18.8,-4.2 -0.2,0 -0.3,-0.1 -0.3,-0.3 35.1,0 70.3,0 105.4,0 0,20.9 0,41.9 0,62.8 -5.1,-0.2 -10.3,-0.5 -15.3,-0.2 -0.5,0.6 -0.4,1.1 -0.4,1.6 0.1,1.7 -0.2,3.5 -0.5,5.2 -0.5,3.3 -0.9,6.6 -1.6,9.8 -0.8,3.9 -1.7,7.8 -2.8,11.6 -1.6,5.6 -3.6,11.1 -6,16.4 -2.1,4.7 -4.6,9.2 -7.4,13.6 -2.4,3.7 -5,7.3 -7.9,10.6 -1.8,2 -3.6,4.1 -5.5,6 -2.8,2.8 -5.8,5.4 -9,7.8 -4.4,3.4 -9,6.4 -13.8,9 -4.6,2.5 -9.3,4.6 -14.2,6.5 -7.4,2.8 -15.1,4.9 -22.9,6.4 -4.2,0.8 -8.5,1.4 -12.8,1.7 -2.8,0.2 -5.5,0.5 -8.3,0.5 -3.9,-0.1 -7.9,0 -11.8,-0.4 -2.8,-0.3 -5.6,-0.6 -8.4,-1.1 -2.1,-0.4 -4.3,-0.7 -6.4,-1.2 -1.2,-0.3 -2.6,-0.8 -4,-0.4 -0.3,-1.1 -1.3,-0.8 -2,-1 -5.7,-1.6 -11.3,-3.7 -16.7,-6.2 -3,-1.4 -5.9,-3.1 -8.7,-4.8 -4.9,-3 -9.5,-6.5 -13.8,-10.4 -4.7,-4.3 -9.1,-9.1 -12.9,-14.2 -3.3,-4.5 -6.3,-9.2 -9,-14.1 -2.4,-4.5 -4.6,-9.1 -6.4,-13.8 -0.7,-1.9 -1.5,-3.8 -2.1,-5.9 1.9,-0.8 3.7,-1.6 5.4,-2.6 6,-3.6 10.6,-8.4 13.8,-14.6 2.3,-4.3 3.4,-9 3.8,-13.8 0.3,-3.3 -0.1,-6.6 -0.8,-9.8 -0.8,-3.6 -2.1,-7 -4,-10.2 -1.4,-2.3 -2.9,-4.5 -4.8,-6.5 -2.4,-2.5 -5.1,-4.6 -8.1,-6.4 -4.2,-2.5 -8.6,-3.9 -13.4,-4.6 -3.3,-0.5 -6.7,-0.3 -10.1,-0.3 -0.4,0 -0.9,-0.2 -1.3,0.1 -0.3,3.3 -0.2,14.2 0.2,15.5 2.4,0 4.8,0 7.1,0 1.3,0 2.6,0.1 3.9,0.4 4.7,1.1 8.6,3.6 11.5,7.4 3.7,4.9 5,10.5 3.6,16.4 -1.3,6.1 -5,10.5 -10.4,13.5 -3.1,1.7 -6.4,2.4 -9.9,2.4 -2.1,0 -4.3,0 -6.5,0 0.3,1.5 0.5,2.7 0.8,4 1.5,5.6 3,11.2 5.1,16.7 2.5,6.5 5.1,12.8 8.4,18.9 2.4,4.6 5.1,9 8.1,13.2 3.4,4.9 7.2,9.5 11.3,13.8 4.2,4.4 8.7,8.5 13.5,12.2 4.2,3.2 8.6,6.1 13.3,8.7 7.5,4.1 15.3,7.4 23.5,9.7 7.7,2.2 15.5,3.7 23.4,4.4 0.9,0.1 1.8,0.2 2.7,0.4 0.1,0 0.1,0.2 0.1,0.3 -102.2,0 -204.5,0 -306.7,0 0,-17.4 0,-34.9 0,-52.3 6,0 12.1,0 18.1,0 0,-35.2 0,-70.2 0,-105.4 -5.5,-0.1 -11.5,-0.1 -17.6,-0.1 z m 107.9,0 c 0,0.5 -0.1,1 -0.1,1.6 0,34.1 0,68.1 0,102.2 0,0.5 0,0.9 0,1.4 0,0.2 0.2,0.2 0.4,0.3 5.8,0 11.6,0 17.4,0 0.7,-0.2 0.4,-0.8 0.4,-1.2 0,-6.6 0,-13.1 0,-19.7 0,-27.7 0,-55.3 0,-83 0,-0.6 0.2,-1.3 -0.2,-1.9 -5.7,0 -11.4,0 -17.1,0 -0.3,-0.1 -0.7,-0.3 -0.8,0.3 z M 98,227.2 c 0.2,0 0.4,-0.1 0.4,-0.3 0,-0.5 0,-0.9 0,-1.4 0,-34.1 0,-68.2 0,-102.3 0,-0.4 0,-0.8 0,-1.2 0,-0.2 -0.2,-0.2 -0.4,-0.2 -6,0 -12.1,0 -18.2,0 0,0.6 0,1.1 0,1.6 0,34.5 0,69 0,103.4 0,0 0,0.1 0.1,0.1 0,0 0.1,0.1 0.1,0.1 6,0.2 12,0.2 18,0.2 z m 50.9,-61.4 c 0.1,-1.8 -0.5,-3.5 -0.9,-5.2 -0.8,-4 -2.5,-7.5 -4.7,-10.9 -2.9,-4.6 -6.1,-8.9 -10.1,-12.7 -1.3,-1.3 -2.8,-2.4 -4.2,-3.6 -3.4,-3 -7.2,-5.5 -11.3,-7.5 -2.8,-1.3 -5.6,-2.5 -8.6,-3.2 -2.3,-0.5 -4.6,-1.1 -6.9,-1 -0.6,0.1 -0.4,0.5 -0.4,0.8 0,2.9 0,5.8 0,8.7 0,2.6 0,5.2 0,7.8 0,0.3 -0.2,0.7 0.4,0.8 2.1,0 4.2,0.3 6.3,0.9 3.6,1.1 6.7,3 9.4,5.5 2,1.8 3.9,3.8 5.5,5.9 2.4,3.1 4.5,6.4 5.9,10.1 1.4,3.7 2.2,7.6 2.2,11.6 0,1.3 -0.2,2.6 -0.8,3.7 -0.8,0.8 -1.7,0.8 -2.5,0.8 -8.5,0 -17,0 -25.5,0 -0.5,0 -1,-0.2 -1.4,0.2 0,5.3 0,10.5 0,15.7 0.3,0.3 0.6,0.2 0.9,0.2 5.2,0 10.5,0 15.7,0 3.4,0 6.7,0 10.1,0 0.8,0 1.6,0.2 2.4,0.5 0.7,0.3 1.2,0.8 1.2,1.7 0,0.3 0,0.7 0,1 0,9.3 0,18.6 0,27.9 0,0.6 -0.1,1.2 0.1,1.7 0.2,0.6 0.7,0.3 1,0.3 5.2,0 10.3,0 15.5,0 0.4,0 0.8,0.2 1.2,-0.2 0,-0.3 0,-0.6 0,-1 0,-6.2 0,-12.3 0,-18.5 0,-2.7 -0.1,-5.5 0.1,-8.2 0.2,-2.3 0.2,-4.6 0.2,-6.9 0,-0.7 0.1,-1.5 0.1,-2.2 0,-5.3 0.1,-10.6 -0.1,-15.9 0.3,-2.8 -0.4,-5.7 -0.4,-8.5 -0.1,-0.2 -0.3,-0.3 -0.4,-0.3 z m 30.5,27.2 c 2.7,0 5.3,0 7.9,0 2.3,0 4.5,-0.2 6.7,-0.7 7.6,-1.8 14.1,-5.4 19.2,-11.3 2.7,-3.1 4.8,-6.4 6.3,-10.2 1.7,-4.1 2.5,-8.4 2.6,-12.9 0,-1.6 0,-3.2 -0.3,-4.8 -0.3,-1.8 -0.6,-3.5 -1,-5.2 -1.3,-4.9 -3.6,-9.2 -6.8,-13.2 -3.3,-4.1 -7.3,-7.4 -12.1,-9.6 -5,-2.4 -10.4,-3.6 -16,-3.6 -1.8,0 -3.6,0 -5.4,0 -0.4,0 -0.9,-0.2 -1.3,0.2 -0.2,6.6 -0.1,14.5 0.2,15.8 2.6,0 5.1,0 7.7,0 1.6,0 3.1,0.3 4.6,0.7 4.6,1.3 8.2,4 11,7.9 1.7,2.4 2.7,5 3.1,7.9 0.5,3.2 0.3,6.3 -0.7,9.4 -1.6,5 -4.9,8.9 -9.5,11.4 -2.6,1.4 -5.4,2.3 -8.4,2.2 -2.2,-0.1 -4.4,0 -6.6,0 -0.5,0 -0.9,-0.1 -1.3,0.4 0.1,5 0.1,10.2 0.1,15.6 z m 46.8,-71.5 c -0.7,0.7 -0.4,1.4 -0.4,2.1 0,33.8 0,67.6 0,101.3 0,0.5 0,0.9 0,1.4 0,0.3 0.2,0.5 0.5,0.8 5.6,0 11.4,0 17.1,0 0.3,0 0.5,-0.2 0.7,-0.4 0,-35.1 0,-70.1 0,-105.2 -6,0 -11.9,0 -17.9,0 z"
   id="path1"
   inkscape:export-filename="path1.svg"
   inkscape:export-xdpi="96"
   inkscape:export-ydpi="96" />
		<path
   class="st1"
   d="m 391.8,94.5 c 0,0.2 0.2,0.3 0.3,0.3 6.5,0.4 12.7,2 18.8,4.2 6.4,2.3 12.3,5.6 17.8,9.5 4.4,3.2 8.3,6.9 11.9,10.9 4.4,5 8,10.5 10.8,16.4 2.6,5.5 4.6,11.3 5.7,17.3 0.4,2.3 0.8,4.5 1.1,6.8 0.5,4.3 0.4,8.6 0.2,12.9 -0.2,4.6 -1.1,9.2 -2.3,13.7 -1.3,4.7 -2.9,9.2 -5.1,13.5 -2.8,5.5 -6.1,10.6 -10.2,15.2 -7.2,8.3 -15.8,14.7 -25.8,19.1 -5.1,2.3 -10.4,3.9 -15.9,4.9 -2.8,0.5 -5.7,0.9 -8.6,1.1 -2.4,0.2 -4.7,0.3 -7.1,0.2 -4.3,-0.2 -8.5,-0.7 -12.7,-1.5 -6.8,-1.4 -13.3,-3.7 -19.4,-7 -5,-2.6 -9.6,-5.8 -13.8,-9.5 -5.5,-4.8 -10.1,-10.3 -14,-16.5 -2.6,-4.1 -4.7,-8.4 -6.4,-13 -1.2,-3.2 -2.2,-6.4 -2.8,-9.7 -0.6,-2.9 -1.1,-5.9 -1.4,-8.8 -0.4,-3.2 -0.3,-6.5 -0.3,-9.7 0,-4.7 0.8,-9.3 1.8,-13.8 1.3,-6 3.4,-11.7 6.3,-17.1 2.5,-4.8 5.5,-9.3 9.1,-13.5 3.4,-4 7.1,-7.6 11.3,-10.8 2.6,-2 5.2,-3.8 8.1,-5.4 4.9,-2.8 10.1,-5.1 15.5,-6.7 3.6,-1.1 7.3,-1.9 11.1,-2.4 0.8,-0.1 1.8,0 2.5,-0.6 4.4,0 9,0 13.5,0 z m 45.6,86.9 c 1.9,-6.3 2.5,-12.8 1.8,-19.3 -0.8,-7.1 -2.7,-13.8 -6.2,-20 -6.1,-1.9 -14.4,-2.4 -16.1,-1.5 6.8,8.3 10.3,17.7 9.8,28.5 4.4,3.5 7.7,7.7 10.7,12.3 z m -83.1,13.1 c -3.4,-4 -6,-8.4 -7.7,-13.3 -1.7,-4.9 -2.5,-10.1 -2.2,-15.2 -4.3,-3.5 -7.8,-7.7 -10.7,-12.5 -0.2,0.4 -0.4,0.7 -0.5,1 -0.6,2.8 -1.3,5.6 -1.4,8.5 -0.3,5.2 -0.2,10.4 0.9,15.5 1,4.6 2.5,8.9 4.5,13.2 0.3,0.6 0.6,1.1 1.1,1.5 9.7,2 11.8,2.2 16,1.3 z m 17,25.1 c 14,3.6 27.1,2 39.6,-4.5 1.6,-5.3 2.1,-10.7 1.7,-16.4 -8.4,7.1 -18,10.3 -28.8,10.2 -3.4,4.4 -7.7,7.7 -12.5,10.7 z m -12.9,-83.2 c 8.5,-7 18,-10.4 28.8,-10.1 3.4,-4.4 7.7,-7.7 12.6,-10.7 -14,-3.5 -27.1,-2.1 -39.6,4.4 -1.6,5.3 -2.2,10.6 -1.8,16.4 z m 44.2,-21.1 c 14.4,5 24.6,14.3 31.1,25.9 1.4,0.5 2.8,0.9 4.3,1.5 1.5,0.6 3,1.2 4.4,1.9 1.4,0.6 2.7,1.3 4.4,2.1 -5.9,-16.4 -16.3,-28.3 -31.1,-36.4 -2.4,0.2 -10.2,3.2 -13.1,5 z m -43.3,4 c 1.3,-4.4 3.1,-8.7 5.5,-13.2 -16.4,6 -28.5,16.4 -36.5,31.3 0.9,4.3 3.8,11.5 5.2,12.9 4.6,-13.5 13.2,-23.8 25.8,-31 z m 52.5,96.6 c -1.3,4.5 -3.2,8.8 -5.5,13.2 16.3,-5.9 28.3,-16.3 36.5,-31.1 -0.3,-3 -3.4,-11 -5.1,-13.1 -4.7,13.5 -13.3,23.8 -25.9,31 z m -43.2,4 c -6.7,-2.4 -12.8,-5.6 -18.1,-10.1 -5.4,-4.5 -9.8,-10 -13.1,-15.9 -1.7,-0.6 -3.1,-1.1 -4.5,-1.6 -1.4,-0.6 -2.9,-1.2 -4.3,-1.8 -1.3,-0.5 -2.5,-1.4 -4.2,-1.9 5.9,16.3 16.4,28.2 31.2,36.4 4.4,-1.3 8.7,-2.8 13,-5.1 z m -12,-24.4 c 7.1,8 18.4,12.2 26.9,12.3 4.1,-5.2 6.3,-11.2 6.9,-17.9 -2.8,0.6 -5.6,0.6 -8.3,0.2 -2.8,-0.4 -5.4,-1.4 -7.9,-2.8 -5.2,4.4 -11,7.1 -17.6,8.2 z m 31.1,-68.2 c -4.1,5.4 -6.4,11.2 -6.9,18 2.9,-0.4 5.6,-0.7 8.4,-0.2 2.7,0.5 5.3,1.4 7.8,2.8 2.5,-2.1 5.2,-3.9 8.2,-5.3 2.9,-1.4 6,-2.3 9.4,-2.9 -7.5,-7.6 -16.4,-11.7 -26.9,-12.4 z m 20.1,35.5 c 1,5.8 0.3,11.2 -2.6,16.1 0.3,0.5 0.5,0.8 0.8,1.1 3.4,4.1 5.6,8.7 6.8,13.8 0.2,0.8 0,1.8 0.8,2.6 7.4,-7.4 11.5,-16.3 12.1,-26.7 -5.2,-4 -11.1,-6.3 -17.9,-6.9 z m -41.9,-6.7 c -2.1,-2.5 -3.9,-5.2 -5.3,-8.1 -1.4,-2.9 -2.3,-6 -2.9,-9.3 -7.5,6.3 -12.6,18.8 -12.2,26.9 5.5,4.5 14.6,7 17.7,6.5 -0.5,-2.7 -0.6,-5.5 -0.1,-8.3 0.5,-2.7 1.5,-5.2 2.8,-7.7 z m 82.8,-7.1 c 4.5,16.9 3.1,33.1 -4.7,48.8 0.3,1.4 0.7,2.9 1,4.4 0.3,1.5 0.3,3 0.9,4.5 10.6,-16 13.6,-35.9 10.2,-52.5 -2.2,-1.9 -4.7,-3.6 -7.4,-5.2 z m -93.4,77.1 c -2.9,0.9 -5.8,1.4 -9,1.9 0.3,0.2 0.5,0.4 0.7,0.5 2.3,1.4 4.6,2.8 7.1,4 3.7,1.8 7.5,3.3 11.4,4.4 5.7,1.6 11.5,2.6 17.5,2.8 5,0.2 9.9,-0.2 14.8,-1 0.8,-0.1 1.4,-0.5 1.9,-1.1 1.3,-1.9 2.7,-3.9 4,-5.9 0.2,-0.2 0.6,-0.5 0.3,-0.9 -16.9,4.6 -33,3.1 -48.7,-4.7 z m -30.2,-97.4 c -4.4,6.3 -7.4,13.2 -9.3,20.5 -2.7,10.5 -3.1,21.1 -1.1,31.7 2.4,1.8 4.8,3.6 7.6,5.1 -4.6,-17 -3,-33.2 4.7,-48.7 -0.7,-2.8 -1.3,-5.7 -1.9,-8.6 z m 99.4,-21.5 C 408.4,96.9 391,93.6 372.3,96.7 c -2,2.4 -3.6,4.9 -5.3,7.8 8.4,-2.4 16.6,-3.1 25,-2.3 8.4,0.8 16.3,3.2 23.8,6.9 2.9,-0.7 5.7,-1.5 8.7,-1.9 z m -59.8,66.3 c 1.2,5.1 5.6,10.8 9.6,12.5 4.8,-4.8 9.2,-9.9 10.6,-17.2 -6.3,4.1 -13.2,4.8 -20.2,4.7 z m 14.9,-26.6 c -4.1,0.2 -11.3,5.9 -12.2,9.3 4.1,4.9 12.3,10.5 16.9,10.4 -4,-6 -4.6,-12.8 -4.7,-19.7 z m 7.5,21.6 c 3.8,6.1 4.4,12.9 4.4,19.8 4,-0.4 10.3,-5 12.4,-9.3 -4.7,-4.8 -9.8,-9.1 -16.8,-10.5 z m -0.9,-2 c 6.2,-4.2 13.1,-4.7 20.2,-4.9 -1.6,-5.3 -4.7,-9.4 -9.4,-12.5 -4.9,5 -9.3,10.1 -10.8,17.4 z"
   id="path2" />
		<path
   class="st2"
   d="m 357.3,279.5 c 0,-0.1 -0.1,-0.3 -0.1,-0.3 -0.9,-0.1 -1.8,-0.3 -2.7,-0.4 -8,-0.7 -15.7,-2.2 -23.4,-4.4 -8.2,-2.3 -16.1,-5.7 -23.5,-9.7 -4.6,-2.5 -9.1,-5.4 -13.3,-8.7 -4.8,-3.7 -9.4,-7.8 -13.5,-12.2 -4.1,-4.3 -7.9,-8.9 -11.3,-13.8 -3,-4.2 -5.6,-8.7 -8.1,-13.2 -3.3,-6.1 -6,-12.5 -8.4,-18.9 -2.1,-5.5 -3.6,-11.1 -5.1,-16.7 -0.3,-1.2 -0.5,-2.5 -0.8,-4 2.3,0 4.4,0 6.5,0 3.5,0 6.8,-0.7 9.9,-2.4 5.4,-3 9,-7.4 10.4,-13.5 1.3,-6 0.1,-11.6 -3.6,-16.4 -2.9,-3.8 -6.8,-6.3 -11.5,-7.4 -1.3,-0.3 -2.6,-0.4 -3.9,-0.4 -2.4,0 -4.8,0 -7.1,0 -0.3,-1.2 -0.4,-12.1 -0.2,-15.5 0.4,-0.3 0.9,-0.1 1.3,-0.1 3.4,0 6.7,-0.2 10.1,0.3 4.7,0.7 9.2,2.2 13.4,4.6 3,1.8 5.7,3.9 8.1,6.4 1.9,2 3.4,4.2 4.8,6.5 1.9,3.2 3.2,6.6 4,10.2 0.7,3.2 1.1,6.5 0.8,9.8 -0.5,4.8 -1.5,9.5 -3.8,13.8 -3.2,6.1 -7.8,11 -13.8,14.6 -1.7,1 -3.6,1.8 -5.4,2.6 0.5,2.1 1.3,4 2.1,5.9 1.8,4.8 4,9.4 6.4,13.8 2.6,4.9 5.6,9.6 9,14.1 3.8,5.2 8.2,9.9 12.9,14.2 4.2,3.9 8.9,7.3 13.8,10.4 2.8,1.7 5.7,3.4 8.7,4.8 5.4,2.5 10.9,4.6 16.7,6.2 0.7,0.2 1.7,0 2,1 1.4,-0.3 2.8,0.1 4,0.4 2.1,0.6 4.3,0.8 6.4,1.2 2.8,0.5 5.6,0.8 8.4,1.1 3.9,0.4 7.9,0.3 11.8,0.4 2.8,0 5.6,-0.2 8.3,-0.5 4.3,-0.4 8.6,-0.9 12.8,-1.7 7.8,-1.5 15.4,-3.5 22.9,-6.4 4.9,-1.9 9.6,-4 14.2,-6.5 4.9,-2.6 9.5,-5.6 13.8,-9 3.1,-2.4 6.2,-5 9,-7.8 1.9,-1.9 3.7,-3.9 5.5,-6 2.9,-3.4 5.5,-6.9 7.9,-10.6 2.8,-4.3 5.3,-8.9 7.4,-13.6 2.4,-5.3 4.4,-10.8 6,-16.4 1.1,-3.8 2,-7.7 2.8,-11.6 0.7,-3.2 1.1,-6.5 1.6,-9.8 0.3,-1.7 0.6,-3.4 0.5,-5.2 0,-0.5 -0.2,-1.1 0.4,-1.6 5,-0.2 10.2,0.1 15.3,0.2 0,2.1 0,4.2 0,6.3 -0.2,0 -0.3,0.1 -0.4,0.3 -0.2,2.6 -0.6,5.1 -1,7.7 -0.4,2.9 -0.9,5.8 -1.6,8.6 -0.8,3.3 -1.6,6.6 -2.6,9.9 -1.7,6 -3.9,11.8 -6.4,17.5 -2.6,5.8 -5.7,11.4 -9.1,16.7 -1.7,2.6 -3.4,5 -5.3,7.4 -2.2,2.8 -4.4,5.5 -6.8,8 -3.8,4.1 -7.9,7.8 -12.3,11.3 -2.4,1.8 -4.7,3.7 -7.2,5.3 -3.1,2 -6.3,3.9 -9.6,5.8 -4.4,2.4 -8.9,4.5 -13.5,6.4 -4.5,1.9 -9.2,3.4 -13.9,4.8 -5.3,1.5 -10.6,2.8 -16,3.7 -4.2,0.7 -8.4,1.4 -12.6,1.7 -1,0.1 -1.9,0.3 -2.9,0.3 -0.2,0 -0.3,0.2 -0.3,0.4 -6.6,0.1 -12.8,0.1 -18.9,0.1 z"
   id="path3" />
		<path
   class="st0"
   d="m 375.8,279.5 c 0,-0.2 0.1,-0.4 0.3,-0.4 1,0 1.9,-0.2 2.9,-0.3 4.2,-0.3 8.4,-1 12.6,-1.7 5.4,-0.9 10.7,-2.2 16,-3.7 4.7,-1.4 9.4,-2.9 13.9,-4.8 4.6,-1.9 9.1,-4 13.5,-6.4 3.3,-1.8 6.5,-3.7 9.6,-5.8 2.5,-1.6 4.9,-3.5 7.2,-5.3 4.4,-3.4 8.5,-7.2 12.3,-11.3 2.4,-2.6 4.6,-5.3 6.8,-8 1.9,-2.4 3.7,-4.9 5.3,-7.4 3.5,-5.3 6.6,-10.9 9.1,-16.7 2.5,-5.7 4.6,-11.5 6.4,-17.5 1,-3.3 1.8,-6.6 2.6,-9.9 0.6,-2.8 1.2,-5.7 1.6,-8.6 0.4,-2.6 0.8,-5.1 1,-7.7 0,-0.2 0.2,-0.3 0.4,-0.3 0,38.6 0,77.2 0,115.9 -40.6,-0.1 -81.1,-0.1 -121.5,-0.1 z"
   id="path4" />
		<path
   class="st3"
   d="m 50.5,121.8 c 6,0 12.1,0 18.1,0 0,35.2 0,70.2 0,105.4 -6.1,0 -12.1,0 -18.1,0 0,-35.2 0,-70.3 0,-105.4 z"
   id="path5" />
		<path
   class="st2"
   d="m 131.6,227.1 c -0.2,-0.6 -0.1,-1.2 -0.1,-1.7 0,-9.3 0,-18.6 0,-27.9 0,-0.3 0,-0.7 0,-1 0,-0.9 -0.5,-1.4 -1.2,-1.7 -0.7,-0.3 -1.5,-0.5 -2.4,-0.5 -3.4,0 -6.7,0 -10.1,0 -5.2,0 -10.5,0 -15.7,0 -0.3,0 -0.6,0.1 -0.9,-0.2 0,-5.2 0,-10.4 0,-15.7 0.4,-0.4 0.9,-0.2 1.4,-0.2 8.5,0 17,0 25.5,0 0.9,0 1.7,0 2.5,-0.8 0.6,-1.1 0.8,-2.4 0.8,-3.7 0.1,-4 -0.8,-7.8 -2.2,-11.6 -1.4,-3.7 -3.4,-7 -5.9,-10.1 -1.7,-2.1 -3.5,-4.1 -5.5,-5.9 -2.7,-2.5 -5.8,-4.5 -9.4,-5.5 -2,-0.6 -4.1,-0.9 -6.3,-0.9 0,-6 0,-12.1 0,-18.1 2.4,-0.1 4.7,0.5 6.9,1 3,0.7 5.9,1.8 8.6,3.2 4.1,2 7.8,4.5 11.3,7.5 1.4,1.2 2.9,2.3 4.2,3.6 4,3.7 7.1,8.1 10.1,12.7 2.2,3.4 3.9,7 4.7,10.9 0.3,1.7 1,3.4 0.9,5.2 0,1.9 0,3.8 0,5.7 0,1 0.3,2 0.6,3 0.2,5.3 0.1,10.6 0.1,15.9 0,0.7 0,1.5 -0.1,2.2 -0.6,0.9 0.1,2 -0.6,2.9 -0.2,0.3 0,0.8 0,1.2 0,9.6 0,19.2 0,28.8 0,0.5 0,1 0,1.6 -5.7,0.1 -11.5,0.1 -17.2,0.1 z"
   id="path6" />
		<path
   class="st3"
   d="m 98,227.2 c -6,0 -12,0 -17.9,0 -0.1,-0.1 -0.1,-0.1 -0.1,-0.1 0,0 -0.1,-0.1 -0.1,-0.1 0,-34.5 0,-69 0,-103.4 0,-0.5 0,-1 0,-1.6 6.1,0 12.1,0 18.2,0 C 98,156.9 98,192 98,227.2 Z"
   id="path7" />
		<path
   class="st3"
   d="m 176.1,227.2 c -5.8,0 -11.6,0 -17.4,0 0,-35.1 0,-70.2 0,-105.4 5.8,0 11.6,0 17.4,0 0,0.7 0,1.2 0,1.7 0,3.7 0,7.3 0,11 0,30.9 0,61.8 0,92.7 z"
   id="path8" />
		<path
   class="st2"
   d="m 179.4,193 c 0,-5.4 0,-10.5 0,-15.6 0.4,-0.5 0.9,-0.4 1.3,-0.4 2.2,0 4.4,-0.1 6.6,0 3,0.1 5.8,-0.8 8.4,-2.2 4.6,-2.5 7.8,-6.3 9.5,-11.4 1,-3.1 1.2,-6.1 0.7,-9.4 -0.5,-2.9 -1.5,-5.5 -3.1,-7.9 -2.7,-3.9 -6.3,-6.6 -11,-7.9 -1.5,-0.4 -3,-0.7 -4.6,-0.7 -2.6,0 -5.1,0 -7.7,0 -0.3,-1.3 -0.4,-9.2 -0.2,-15.8 0.4,-0.4 0.9,-0.2 1.3,-0.2 1.8,0 3.6,0 5.4,0 5.6,0 11,1.1 16,3.6 4.7,2.3 8.7,5.5 12.1,9.6 3.2,3.9 5.5,8.3 6.8,13.2 0.5,1.7 0.8,3.5 1,5.2 0.2,1.6 0.3,3.2 0.3,4.8 -0.1,4.4 -0.9,8.7 -2.6,12.9 -1.5,3.8 -3.7,7.1 -6.3,10.2 -5.2,5.9 -11.6,9.6 -19.2,11.3 -2.2,0.5 -4.4,0.8 -6.7,0.7 -2.7,0 -5.3,0 -8,0 z"
   id="path9" />
		<path
   class="st4"
   d="m 226.2,121.5 c 6,0 11.9,0 17.9,0 0,35.1 0,70.1 0,105.2 -0.2,0.2 -0.4,0.4 -0.7,0.4 -5.7,0 -11.5,0 -17.1,0 -0.4,-0.3 -0.6,-0.5 -0.5,-0.8 0,-0.5 0,-0.9 0,-1.4 0,-33.8 0,-67.6 0,-101.3 0,-0.7 -0.3,-1.5 0.4,-2.1 z m 17.6,104.9 c 0,-35 0,-69.8 0,-104.6 -5.8,0 -11.5,0 -17.4,0 0,0.4 0,0.7 0,1.1 0,34.4 0,68.8 0,103.2 0,0 0,0.1 0.1,0.1 0,0 0.1,0.1 0.1,0.1 5.7,0.1 11.4,0.1 17.2,0.1 z"
   id="path10" />
		<path
   class="st4"
   d="m 176.1,227.2 c 0,-30.9 0,-61.8 0,-92.7 0,-3.7 0,-7.3 0,-11 0,-0.5 0,-1 0,-1.7 -5.9,0 -11.7,0 -17.4,0 -0.1,0 -0.2,0 -0.4,0 0.1,-0.5 0.5,-0.3 0.8,-0.3 5.7,0 11.4,0 17.1,0 0.4,0.6 0.2,1.2 0.2,1.9 0,27.7 0,55.3 0,83 0,6.6 0,13.1 0,19.7 0.1,0.3 0.4,0.9 -0.3,1.1 z"
   id="path11" />
		<path
   class="st2"
   d="m 158.4,121.8 c 0.1,0 0.2,0 0.4,0 0,35.1 0,70.2 0,105.4 -0.2,0 -0.4,-0.1 -0.4,-0.3 0,-0.5 0,-0.9 0,-1.4 0,-34.1 0,-68.1 0,-102.2 -0.1,-0.5 -0.1,-1 0,-1.5 z"
   id="path12" />
		<path
   class="st2"
   d="m 98,227.2 c 0,-35.1 0,-70.2 0,-105.4 0.2,0 0.4,0.1 0.4,0.2 0,0.4 0,0.8 0,1.2 0,34.1 0,68.2 0,102.3 0,0.5 0,0.9 0,1.4 0,0.2 -0.2,0.2 -0.4,0.3 z"
   id="path13" />
		<path
   class="st4"
   d="m 131.6,227.1 c 5.7,0 11.5,0 17.4,0 0,-0.6 0,-1.1 0,-1.6 0,-9.6 0,-19.2 0,-28.8 0,-0.4 -0.2,-0.9 0,-1.2 0.6,-0.9 -0.1,-2 0.6,-2.9 0,2.3 0,4.6 -0.2,6.9 -0.2,2.7 -0.1,5.5 -0.1,8.2 0,6.2 0,12.3 0,18.5 0,0.3 0,0.7 0,1 -0.4,0.4 -0.8,0.2 -1.2,0.2 -5.2,0 -10.3,0 -15.5,0 -0.4,0 -0.9,0.4 -1,-0.3 z"
   id="path14" />
		<path
   class="st4"
   d="m 102.2,121.8 c 0,6 0,12.1 0,18.1 -0.6,-0.1 -0.4,-0.5 -0.4,-0.8 0,-2.6 0,-5.2 0,-7.8 0,-2.9 0,-5.8 0,-8.7 0,-0.3 -0.2,-0.8 0.4,-0.8 z"
   id="path15" />
		<path
   class="st4"
   d="m 149.6,174.4 c -0.3,-1 -0.6,-2 -0.6,-3 0,-1.9 0,-3.8 0,-5.7 0.1,0.1 0.3,0.1 0.3,0.2 -0.1,2.9 0.5,5.7 0.3,8.5 z"
   id="path16" />
		<path
   class="st5"
   d="m 437.4,181.4 c -3,-4.6 -6.3,-8.8 -10.7,-12.2 0.5,-10.8 -3,-20.2 -9.8,-28.5 1.7,-0.9 10,-0.4 16.1,1.5 3.5,6.2 5.4,12.9 6.2,20 0.7,6.5 0.1,12.9 -1.8,19.2 z"
   id="path17" />
		<path
   class="st5"
   d="m 354.3,194.5 c -4.1,0.8 -6.2,0.6 -15.8,-1.4 -0.5,-0.4 -0.8,-0.9 -1.1,-1.5 -2,-4.2 -3.5,-8.6 -4.5,-13.2 -1.1,-5.2 -1.2,-10.3 -0.9,-15.5 0.2,-2.9 0.8,-5.7 1.4,-8.5 0.1,-0.3 0.3,-0.6 0.5,-1 2.8,4.8 6.3,9 10.7,12.5 -0.3,5.2 0.5,10.3 2.2,15.2 1.5,5.1 4,9.5 7.5,13.4 z"
   id="path18" />
		<path
   class="st5"
   d="m 371.3,219.6 c 4.8,-3 9.1,-6.3 12.5,-10.7 10.8,0.2 20.4,-3 28.8,-10.2 0.4,5.7 -0.1,11.1 -1.7,16.4 -12.5,6.6 -25.6,8.1 -39.6,4.5 z"
   id="path19" />
		<path
   class="st5"
   d="m 358.4,136.4 c -0.4,-5.8 0.2,-11.1 1.8,-16.4 12.5,-6.5 25.6,-7.9 39.6,-4.4 -4.9,3 -9.2,6.4 -12.6,10.7 -10.8,-0.4 -20.3,3 -28.8,10.1 z"
   id="path20" />
		<path
   class="st5"
   d="m 402.6,115.3 c 2.9,-1.8 10.7,-4.8 13.2,-5.1 14.8,8.1 25.2,20.1 31.1,36.4 -1.7,-0.8 -3.1,-1.5 -4.4,-2.1 -1.5,-0.7 -2.9,-1.3 -4.4,-1.9 -1.4,-0.6 -2.9,-1 -4.3,-1.5 -6.6,-11.5 -16.7,-20.8 -31.2,-25.8 z"
   id="path21" />
		<path
   class="st5"
   d="m 359.3,119.3 c -12.6,7.1 -21.2,17.4 -25.9,31 -1.4,-1.4 -4.3,-8.6 -5.2,-12.9 8,-14.9 20.1,-25.2 36.5,-31.3 -2.3,4.6 -4.1,8.8 -5.4,13.2 z"
   id="path22" />
		<path
   class="st5"
   d="m 411.8,215.9 c 12.6,-7.2 21.2,-17.5 25.9,-31.1 1.7,2.1 4.8,10.2 5.1,13.1 -8.1,14.8 -20.1,25.2 -36.5,31.1 2.3,-4.4 4.2,-8.6 5.5,-13.1 z"
   id="path23" />
		<path
   class="st5"
   d="m 368.6,219.9 c -4.3,2.3 -8.6,3.8 -13.1,5.2 -14.9,-8.2 -25.3,-20.1 -31.2,-36.4 1.7,0.5 2.9,1.4 4.2,1.9 1.4,0.6 2.9,1.2 4.3,1.8 1.4,0.5 2.8,1 4.5,1.6 3.3,5.9 7.7,11.3 13.1,15.9 5.4,4.4 11.5,7.6 18.2,10 z"
   id="path24" />
		<path
   class="st5"
   d="m 356.6,195.5 c 6.6,-1.1 12.4,-3.8 17.5,-8.2 2.5,1.4 5.1,2.5 7.9,2.8 2.7,0.4 5.5,0.4 8.3,-0.2 -0.6,6.7 -2.8,12.7 -6.9,17.9 -8.4,-0.1 -19.7,-4.3 -26.8,-12.3 z"
   id="path25" />
		<path
   class="st5"
   d="m 387.7,127.3 c 10.5,0.7 19.4,4.8 27,12.4 -3.4,0.6 -6.5,1.5 -9.4,2.9 -3,1.4 -5.7,3.2 -8.2,5.3 -2.5,-1.4 -5.1,-2.3 -7.8,-2.8 -2.8,-0.5 -5.5,-0.2 -8.4,0.2 0.4,-6.8 2.7,-12.6 6.8,-18 z"
   id="path26" />
		<path
   class="st5"
   d="m 407.8,162.8 c 6.8,0.6 12.6,2.8 17.9,6.9 -0.6,10.5 -4.7,19.3 -12.1,26.7 -0.8,-0.7 -0.6,-1.7 -0.8,-2.6 -1.3,-5.1 -3.5,-9.7 -6.8,-13.8 -0.3,-0.3 -0.5,-0.7 -0.8,-1.1 2.9,-4.9 3.6,-10.2 2.6,-16.1 z"
   id="path27" />
		<path
   class="st5"
   d="m 365.9,156.1 c -1.3,2.4 -2.3,5 -2.8,7.7 -0.5,2.8 -0.3,5.5 0.1,8.3 -3.2,0.5 -12.2,-2 -17.7,-6.5 -0.4,-8.1 4.7,-20.5 12.2,-26.9 0.6,3.3 1.5,6.4 2.9,9.3 1.4,3 3.1,5.7 5.3,8.1 z"
   id="path28" />
		<path
   class="st5"
   d="m 448.7,149 c 2.7,1.7 5.2,3.3 7.5,5.2 3.4,16.7 0.4,36.5 -10.2,52.5 -0.6,-1.5 -0.6,-3.1 -0.9,-4.5 -0.4,-1.5 -0.7,-3 -1,-4.4 7.7,-15.7 9.1,-31.9 4.6,-48.8 z"
   id="path29" />
		<path
   class="st5"
   d="m 355.3,226.1 c 15.7,7.8 31.8,9.4 48.6,4.8 0.3,0.4 -0.1,0.6 -0.3,0.9 -1.3,2 -2.6,3.9 -4,5.9 -0.4,0.6 -1.1,1 -1.9,1.1 -4.9,0.8 -9.9,1.2 -14.8,1 -5.9,-0.2 -11.8,-1.2 -17.5,-2.8 -3.9,-1.1 -7.7,-2.6 -11.4,-4.4 -2.4,-1.2 -4.8,-2.5 -7.1,-4 -0.2,-0.1 -0.4,-0.3 -0.7,-0.5 3.3,-0.7 6.2,-1.1 9.1,-2 z"
   id="path30" />
		<path
   class="st5"
   d="m 325.1,128.7 c 0.6,2.9 1.2,5.8 2,8.6 -7.8,15.5 -9.3,31.7 -4.7,48.7 -2.8,-1.5 -5.2,-3.3 -7.6,-5.1 -2,-10.7 -1.6,-21.3 1.1,-31.7 1.9,-7.3 4.9,-14.2 9.2,-20.5 z"
   id="path31" />
		<path
   class="st5"
   d="m 424.5,107.2 c -3,0.5 -5.9,1.2 -8.9,1.9 -7.4,-3.7 -15.3,-6.1 -23.8,-6.9 -8.4,-0.8 -16.6,-0.1 -25,2.3 1.7,-2.9 3.4,-5.4 5.3,-7.8 18.9,-3.2 36.4,0.1 52.4,10.5 z"
   id="path32" />
		<path
   class="st5"
   d="m 364.7,173.5 c 7.1,0.1 13.9,-0.6 20.2,-4.7 -1.4,7.3 -5.8,12.3 -10.6,17.2 -4,-1.7 -8.4,-7.5 -9.6,-12.5 z"
   id="path33" />
		<path
   class="st5"
   d="m 379.6,146.9 c 0.1,6.9 0.7,13.7 4.7,19.7 -4.6,0.1 -12.7,-5.5 -16.9,-10.4 0.9,-3.4 8.1,-9 12.2,-9.3 z"
   id="path34" />
		<path
   class="st5"
   d="m 387.1,168.5 c 7,1.3 12.1,5.7 16.9,10.5 -2.2,4.3 -8.5,8.9 -12.4,9.3 -0.1,-6.9 -0.8,-13.7 -4.5,-19.8 z"
   id="path35" />
		<path
   class="st5"
   d="m 386.2,166.5 c 1.5,-7.3 5.8,-12.4 10.8,-17.3 4.7,3.1 7.8,7.2 9.4,12.5 -7,0 -13.9,0.6 -20.2,4.8 z"
   id="path36" />
		<path
   class="st3"
   d="m 243.8,226.4 c -5.8,0 -11.5,0 -17.2,0 0,0 -0.1,-0.1 -0.1,-0.1 0,0 -0.1,-0.1 -0.1,-0.1 0,-34.4 0,-68.8 0,-103.2 0,-0.3 0,-0.7 0,-1.1 5.8,0 11.6,0 17.4,0 0,34.8 0,69.6 0,104.5 z"
   id="path37" />
	</g>
</g>
</svg>
