<svg id="Calque_1" data-name="Calque 1" xmlns="http://www.w3.org/2000/svg" viewBox="0 0 370.44 126.45"><defs><style>.cls-1{fill:#353d4d}.cls-3{fill:#fff}</style></defs><path class="cls-1" d="M108.52 32.59h8.06v29.27h14.49v6.32h-22.55V32.59zM135.06 61c0-6.07 5.58-8.36 13.54-8.36h2.94v-1c0-3.09-.95-4.78-4.23-4.78-2.84 0-4.13 1.44-4.43 3.68h-6.82c.45-6.17 5.33-8.91 11.7-8.91s10.9 2.59 10.9 9.66v17h-7v-3.24c-1.49 2.09-3.78 3.68-7.87 3.68-4.72 0-8.71-2.29-8.71-7.77m16.48-1.89v-2.19h-2.79c-4.18 0-6.62.9-6.62 3.69 0 1.89 1.15 3.13 3.79 3.13 3.18 0 5.62-1.74 5.62-4.63M175.63 32.59h12.74c8.42 0 13.74 3.44 13.74 10.8v.2c0 5.38-3.13 8.21-7.31 9.46l9.4 15.13h-8.56l-8.51-13.74h-3.48v13.74h-8zM188.18 49c4 0 6.07-1.69 6.07-5.13v-.2c0-3.63-2.19-4.88-6.07-4.88h-4.53V49zM206.69 55.49v-.4c0-8.21 5.82-13.54 13.39-13.54 6.72 0 12.69 3.93 12.69 13.24v2H214c.2 4.33 2.54 6.82 6.47 6.82 3.34 0 5-1.44 5.43-3.63h6.82c-.85 5.62-5.33 8.76-12.44 8.76-7.87 0-13.59-4.93-13.59-13.24m19.06-3.14c-.25-3.93-2.24-5.82-5.67-5.82-3.24 0-5.43 2.14-6 5.82zm-5.87-21.66h7.57l-5.18 7.91H217zM237.14 68.73h7.16c.45 2.29 2.09 3.78 5.78 3.78 4.38 0 6.57-2.29 6.57-6.37v-3.93a9.76 9.76 0 01-8.36 4.79c-6.33 0-11.35-4.73-11.35-12.45v-.35c0-7.46 5-12.69 11.45-12.69 4.23 0 6.77 1.84 8.26 4.48v-3.84h7.17v24c-.05 7.72-5.18 11.65-13.74 11.65s-12.25-3.69-12.94-9.06m19.71-14.24v-.35c0-4.43-2.34-7.11-6.27-7.11s-6.28 2.88-6.28 7.16v.4c0 4.33 2.54 7 6.13 7 3.78 0 6.42-2.69 6.42-7.12M270.36 34.68a4.11 4.11 0 114.08 3.93 3.94 3.94 0 01-4.08-3.93m.54 7.47h7.17v26h-7.17zM283.54 55.44V55c0-8.16 5.92-13.49 13.74-13.49S311 46.78 311 54.89v.4c0 8.21-5.92 13.44-13.73 13.44s-13.69-5.18-13.69-13.29m20.11-.1V55c0-5-2.34-8-6.37-8s-6.38 2.88-6.38 7.86v.4c0 5 2.29 8 6.38 8s6.37-3 6.37-7.91M316.45 42.15h7.22v4.13c1.29-2.59 4.13-4.73 8.46-4.73 5.13 0 8.76 3.09 8.76 10.06v16.57h-7.22V52.65c0-3.53-1.39-5.22-4.58-5.22s-5.42 1.89-5.42 5.72v15h-7.22zM114 82.61h2.6l5.51 16.3h-2l-1.59-4.7h-6.72l-1.58 4.7h-1.87zm-1.62 10H118l-2.82-8.39zM123.55 94.53V87h1.89v7.45c0 2.1.89 3 2.76 3a3.13 3.13 0 003.28-3.26V87h1.89v11.91h-1.89V97a4.07 4.07 0 01-3.78 2.09c-2.37 0-4.15-1.3-4.15-4.58M135.15 86.99h2.05l3.53 10 3.49-10h1.96l-4.29 11.92h-2.41l-4.33-11.92zM146.73 93.07v-.18c0-3.6 2.3-6.11 5.59-6.11 2.75 0 5.35 1.67 5.35 5.93v.61h-9c.09 2.72 1.39 4.22 3.83 4.22 1.85 0 2.92-.68 3.17-2.07h1.89c-.41 2.39-2.39 3.64-5.08 3.64-3.37 0-5.77-2.37-5.77-6m9-1.27c-.18-2.46-1.45-3.44-3.41-3.44s-3.24 1.32-3.56 3.44zM160 87h1.89v2.14a4.17 4.17 0 013.92-2.35v1.78c-2.39.12-3.92.87-3.92 3.81v6.54H160zM166.89 99.59h1.93c.28 1.37 1.42 2.08 3.45 2.08 2.34 0 3.83-1.12 3.83-3.67v-1.73a5 5 0 01-4 2.25 5.37 5.37 0 01-5.42-5.65v-.16a5.64 5.64 0 015.56-5.93 4.29 4.29 0 013.9 2.12V87H178v11.11c0 3.47-2.37 5.15-5.7 5.15-3.53 0-5.08-1.66-5.4-3.67m9.27-6.86v-.16c0-2.66-1.45-4.21-3.78-4.21s-3.78 1.75-3.78 4.26v.18c0 2.6 1.66 4.15 3.67 4.15 2.21 0 3.89-1.55 3.89-4.22M181 87h1.89v1.89a4.08 4.08 0 013.83-2.1c2.46 0 4.19 1.35 4.19 4.81v7.32h-1.89v-7.46c0-2.1-.89-3-2.81-3a3.13 3.13 0 00-3.32 3.26v7.23H181zM193.16 93.07v-.18c0-3.6 2.3-6.11 5.59-6.11 2.76 0 5.35 1.67 5.35 5.93v.61h-9c.09 2.72 1.39 4.22 3.83 4.22 1.85 0 2.92-.68 3.17-2.07h1.9c-.41 2.39-2.39 3.64-5.08 3.64-3.37 0-5.77-2.37-5.77-6m9-1.27c-.19-2.46-1.46-3.44-3.42-3.44s-3.24 1.32-3.56 3.44zM206.37 91.75h4.88v1.78h-4.88zM214.5 82.61h4.9c3.12 0 5.69 1.28 5.69 4.54v.09c0 2.69-1.8 4-4 4.44l5 7.23h-2.21L219 91.82h-2.51v7.09h-2zm5 7.64c2.33 0 3.58-1 3.58-3v-.09c0-2.21-1.37-2.94-3.58-2.94h-3.05v6zM228 81.29h1.89v7.59a4.1 4.1 0 013.83-2.1c2.46 0 4.19 1.35 4.19 4.81v7.32H236v-7.45c0-2.1-.89-3-2.8-3a3.14 3.14 0 00-3.33 3.26v7.23H228zM240.08 93.05v-.18a5.86 5.86 0 1111.72 0V93a5.86 5.86 0 11-11.72 0m9.76 0v-.16c0-2.76-1.53-4.53-3.9-4.53s-3.9 1.77-3.9 4.51V93c0 2.71 1.48 4.49 3.9 4.49s3.9-1.8 3.9-4.49m-4.74-11.34h1.71l2.43 3.28h-1.39l-1.93-1.71-1.92 1.71h-1.34zM254.11 87H256v1.89a4.07 4.07 0 013.83-2.1c2.46 0 4.19 1.35 4.19 4.81v7.32h-1.89v-7.46c0-2.1-.89-3-2.81-3a3.13 3.13 0 00-3.32 3.22v7.23h-1.9zM266.25 93.07v-.18c0-3.6 2.3-6.11 5.59-6.11 2.75 0 5.35 1.67 5.35 5.93v.61h-9c.09 2.72 1.39 4.22 3.83 4.22 1.85 0 2.92-.68 3.17-2.07h1.89c-.41 2.39-2.39 3.64-5.08 3.64-3.37 0-5.77-2.37-5.77-6m9-1.27c-.19-2.46-1.46-3.44-3.42-3.44s-3.24 1.32-3.56 3.44zM279.46 91.75h4.88v1.78h-4.88zM291.43 82.61H294l5.52 16.3h-2l-1.6-4.7h-6.72l-1.58 4.7h-1.86zm-1.62 10h5.66l-2.83-8.39zM301.55 81.29h1.91v17.62h-1.91zM306.5 87h1.89v2a4.9 4.9 0 014-2.22c3.12 0 5.42 2.28 5.42 6V93c0 3.65-2.14 6.15-5.42 6.15a4.54 4.54 0 01-4-2.16v6.11h-1.89zm9.39 6.06v-.18c0-3-1.66-4.51-3.67-4.51-2.21 0-3.9 1.46-3.9 4.51v.18c0 3.06 1.6 4.49 3.93 4.49s3.64-1.59 3.64-4.49M319.44 93.07v-.18c0-3.6 2.3-6.11 5.58-6.11 2.76 0 5.36 1.67 5.36 5.93v.61h-9c.09 2.72 1.39 4.22 3.83 4.22 1.85 0 2.92-.68 3.17-2.07h1.89c-.41 2.39-2.39 3.64-5.08 3.64-3.38 0-5.77-2.37-5.77-6m9-1.27c-.18-2.46-1.46-3.44-3.42-3.44s-3.23 1.32-3.55 3.44zM331.84 95.24h1.85c.14 1.41.89 2.3 2.8 2.3s2.6-.61 2.6-1.89-.93-1.66-2.78-2c-3.1-.57-4.15-1.43-4.15-3.51s2.17-3.35 4-3.35c2.14 0 4 .87 4.3 3.45h-1.82c-.27-1.3-1-1.87-2.51-1.87s-2.25.68-2.25 1.71.59 1.5 2.78 1.89c2.46.45 4.19 1 4.19 3.53 0 2.16-1.48 3.62-4.38 3.62s-4.55-1.43-4.67-3.87"/><path d="M92.53 65.71a33.18 33.18 0 11-33.18-33.18 33.18 33.18 0 0133.18 33.18" fill="#0096de"/><path class="cls-3" d="M64.48 46.51H61.3l-7.48 12.85 3.16 1.85 5.91-10.14 12 20.58 3.17-1.83-13.58-23.31zM46.52 75.43h33.46v3.66H46.52z"/><path class="cls-3" d="M64 62.1a10.27 10.27 0 01-15.35.44h-3.29l-.13.23-8.45 14.47 3.16 1.85 6.14-10.51 1.31-2.24a13.94 13.94 0 0019.32-1.78z"/></svg>