<?xml version="1.0" encoding="UTF-8"?> <svg xmlns="http://www.w3.org/2000/svg" width="135" height="55" viewBox="0 0 135 55" fill="none"><path d="M26.252 0.991455C27.0367 0.991455 27.7236 1.28698 28.2432 1.84595L28.2451 1.8479C28.7552 2.39928 29.0136 3.09345 29.0137 3.9104V35.7649C29.0137 39.6694 28.2879 43.0654 26.8564 45.8586C25.4116 48.6744 23.3745 50.8441 20.8027 52.3088C18.2436 53.7643 15.3266 54.5022 12.1309 54.5022C10.2 54.5022 8.36671 54.2753 6.68262 53.8274C4.98102 53.3745 3.54233 52.7557 2.40625 51.9895C1.25427 51.22 0.668983 50.3044 0.668945 49.2717C0.668945 49.1489 0.687571 48.9555 0.822266 48.3782L0.830078 48.3479C1.0083 47.7072 1.32316 47.2104 1.76562 46.8704C2.20731 46.5279 2.70068 46.3528 3.22852 46.3528C3.62085 46.3528 4.01154 46.4566 4.38965 46.6604L4.41504 46.675C7.13977 48.2834 9.7578 49.0979 12.1973 49.0979C15.7017 49.0978 18.395 47.9548 20.4287 45.6028C22.4608 43.2507 23.4912 39.9639 23.4912 35.8372V35.7415C22.4814 36.9538 21.2488 37.9895 19.8057 38.8342C17.6005 40.125 15.176 40.7786 12.5986 40.7786C8.49505 40.7786 5.32434 39.4201 3.17676 36.7405C1.06853 34.1126 0 30.5272 0 26.0862V3.9104C5.12292e-05 3.09176 0.2584 2.39747 0.768555 1.84692C1.28724 1.28712 1.97603 0.991475 2.76074 0.991455C3.54548 0.991455 4.23242 1.28697 4.75195 1.84595C5.26307 2.39903 5.52143 3.09333 5.52148 3.9104V25.4358C5.52152 28.7144 6.17705 31.207 7.46875 32.843C8.73539 34.4488 10.6982 35.2288 13.4697 35.2288C15.1545 35.2287 16.7931 34.7659 18.3398 33.8528C19.9001 32.9328 21.1651 31.7057 22.0996 30.2034C23.0231 28.7187 23.4912 27.1151 23.4912 25.4358V3.9104C23.4913 3.09177 23.7496 2.39747 24.2598 1.84692C24.7784 1.28713 25.4673 0.991485 26.252 0.991455Z" fill="#E0185E"></path><path d="M50.1465 0.773926C53.4485 0.77395 56.4909 1.66548 59.1914 3.42432C61.8809 5.17727 64.0179 7.60895 65.543 10.6519C67.0614 13.6815 67.831 17.0997 67.8311 20.812C67.8311 24.5244 67.0614 27.9442 65.543 30.9731C64.017 34.0177 61.8778 36.4378 59.1865 38.1665C56.4868 39.8995 53.4451 40.7769 50.1455 40.7769C46.8454 40.7767 43.8041 39.8984 41.1055 38.1665C38.4141 36.4394 36.2749 34.0195 34.748 30.9731C33.2296 27.9451 32.46 24.5261 32.46 20.812C32.46 17.0981 33.2297 13.6815 34.748 10.6519C36.274 7.60799 38.4118 5.17648 41.1006 3.42432C43.8003 1.66546 46.8444 0.773926 50.1465 0.773926ZM50.1465 6.32275C47.9019 6.32275 45.836 6.9487 44.0088 8.18115C42.165 9.4253 40.6847 11.1625 39.6113 13.3433C38.5305 15.5398 37.9825 18.0523 37.9824 20.812C37.9824 23.5718 38.5297 26.0128 39.6113 28.2095C40.6855 30.3919 42.1658 32.1291 44.0088 33.3716C45.8351 34.604 47.9003 35.229 50.1475 35.229C52.3944 35.229 54.475 34.6142 56.3271 33.4019C58.1869 32.1836 59.6631 30.4624 60.7139 28.2866C61.7747 26.0874 62.3125 23.5719 62.3125 20.812C62.3125 18.0523 61.7746 15.5373 60.7139 13.3374C59.6631 11.1608 58.1853 9.42725 56.3223 8.18311C54.4718 6.94906 52.3946 6.32283 50.1484 6.32275H50.1465Z" fill="#E0185E"></path><path d="M88.7812 0.773926C92.0834 0.773926 95.1256 1.66546 97.8262 3.42432C100.516 5.17732 102.654 7.6088 104.179 10.6519C105.697 13.6815 106.467 17.0998 106.467 20.812C106.467 24.5244 105.697 27.9442 104.179 30.9731C102.653 34.0176 100.513 36.4378 97.8223 38.1665C95.1227 39.8993 92.0806 40.7767 88.7812 40.7769C85.4808 40.7768 82.4391 39.8986 79.7402 38.1665C77.049 36.4395 74.9106 34.0194 73.3838 30.9731C71.8653 27.9451 71.0957 24.5261 71.0957 20.812C71.0957 17.0981 71.8654 13.6815 73.3838 10.6519C74.9098 7.60797 77.0475 5.17646 79.7363 3.42432C82.436 1.6656 85.4793 0.773943 88.7812 0.773926ZM88.7812 6.32275C86.5367 6.32277 84.4707 6.94872 82.6436 8.18115C80.7998 9.42527 79.3204 11.1626 78.2471 13.3433C77.1662 15.5399 76.6172 18.0523 76.6172 20.812C76.6172 23.5719 77.1653 26.0128 78.2471 28.2095C79.3212 30.3918 80.8007 32.1291 82.6436 33.3716C84.4699 34.604 86.5351 35.229 88.7822 35.229C91.0292 35.229 93.1097 34.6141 94.9619 33.4019C96.8217 32.1836 98.2979 30.4624 99.3486 28.2866C100.409 26.0874 100.947 23.5719 100.947 20.812C100.947 18.0523 100.409 15.5373 99.3486 13.3374C98.2978 11.1608 96.8202 9.42726 94.957 8.18311C93.1065 6.94901 91.0294 6.32279 88.7832 6.32275H88.7812Z" fill="#E0185E"></path><path d="M131.415 1.13495C132.172 1.13495 132.836 1.45399 133.335 2.05878C133.804 2.62935 134.043 3.3004 134.043 4.05389C134.043 4.73306 133.82 5.4094 133.38 6.06268L114.288 34.506H130.947C131.73 34.506 132.407 34.7896 132.905 35.3244L132.907 35.3264C133.395 35.8544 133.643 36.5119 133.643 37.2805C133.643 38.049 133.395 38.7092 132.907 39.2355C132.404 39.7786 131.744 40.0549 130.948 40.0549H130.946V40.0558H109.194C108.383 40.0557 107.692 39.7174 107.194 39.0783C106.734 38.4901 106.501 37.8607 106.501 37.2082C106.501 36.4188 106.753 35.7095 107.25 35.0988L126.258 6.68475H110.868C110.124 6.68475 109.481 6.41405 108.958 5.88104C108.438 5.3538 108.174 4.68978 108.174 3.90936C108.174 3.12913 108.439 2.46733 108.959 1.93768C109.476 1.41224 110.136 1.13495 110.868 1.13495H131.415Z" fill="#E0185E"></path></svg> 